<svg id="SvgjsSvg1001" width="288" height="288" xmlns="http://www.w3.org/2000/svg" version="1.1" xmlnsXlink="http://www.w3.org/1999/xlink" xmlnssvgjs="http://svgjs.com/svgjs"><defs id="SvgjsDefs1002"></defs><g id="SvgjsG1008" transform="matrix(1,0,0,1,0,0)"><svg xmlns="http://www.w3.org/2000/svg" data-name="Layer 1" viewBox="0 0 24 24" width="288" height="288"><path d="M8.36,15.33a1,1,0,0,0-.13,1.4,1,1,0,0,0,1.41.13,3.76,3.76,0,0,1,4.72,0,1,1,0,0,0,1.41-.13,1,1,0,0,0-.13-1.4A5.81,5.81,0,0,0,8.36,15.33ZM9,11a1,1,0,1,0-1-1A1,1,0,0,0,9,11Zm3-9A10,10,0,1,0,22,12,10,10,0,0,0,12,2Zm0,18a8,8,0,1,1,8-8A8,8,0,0,1,12,20ZM15,9a1,1,0,1,0,1,1A1,1,0,0,0,15,9Z" fill="#9072c2" class="color000 svgShape"></path></svg></g></svg>